<svg width="130" height="80" viewBox="0 0 130 80" fill="none" xmlns="http://www.w3.org/2000/svg">
<path fill-rule="evenodd" clip-rule="evenodd" d="M31.2405 29.8377C31.5862 29.6217 31.9135 29.3915 32.226 29.1489H77.7939V29.1483H124.702C125.538 30.6323 126.269 32.2438 126.875 33.9946C128.132 37.6318 128.385 42.2938 128.193 46.7298C128.002 51.1271 127.377 55.2292 126.916 57.752C126.78 58.2096 126.638 58.5966 126.499 58.8914C126.428 59.0424 126.362 59.1592 126.305 59.2445C126.276 59.2866 126.252 59.3174 126.233 59.3391L126.233 59.3399C126.19 59.3534 126.127 59.3696 126.041 59.3867C125.855 59.4237 125.62 59.4539 125.378 59.4775C125.139 59.5008 124.909 59.5162 124.737 59.5258C124.678 59.5291 124.627 59.5316 124.585 59.5336L124.532 59.5359L124.477 59.5382L124.471 59.5384H121.469C121.554 58.9736 121.598 58.3954 121.598 57.8069C121.598 51.4507 116.445 46.2979 110.089 46.2979C103.733 46.2979 98.5801 51.4507 98.5801 57.8069C98.5801 58.3954 98.6243 58.9736 98.7095 59.5384H39.0455C39.048 59.4396 39.0493 59.3404 39.0493 59.241C39.0493 52.8847 33.8965 47.732 27.5403 47.732C21.184 47.732 16.0312 52.8847 16.0312 59.241C16.0312 59.3404 16.0325 59.4396 16.035 59.5384H4.66608L4.66484 59.5383C4.65521 59.5379 4.63914 59.5371 4.61729 59.5356C4.57354 59.5328 4.50701 59.5276 4.42292 59.5185C4.2538 59.5001 4.01868 59.4664 3.75774 59.4058C3.21228 59.279 2.65946 59.0582 2.31239 58.7111C1.91704 58.3158 1.88047 58.2587 1.85132 58.1784C1.80346 58.0467 1.78492 57.8385 1.75063 57.0798C1.79865 54.5462 2.08225 50.872 3.12256 47.3554C4.16947 43.8166 5.95018 40.5451 8.91502 38.6888C12.4507 36.475 16.506 35.1829 20.469 33.9848C20.7155 33.9102 20.9619 33.836 21.2079 33.7619L21.208 33.7619L21.2082 33.7619L21.2082 33.7618C24.8703 32.6588 28.4539 31.5794 31.2405 29.8377ZM77.7939 27.6483V10.5195C83.5771 10.6032 89.0801 10.9541 93.0452 11.5387C97.3806 12.178 104.323 13.3697 110.948 16.6264C115.794 19.0082 120.451 22.4844 123.796 27.6483H77.7939ZM126.411 29.1483C127.123 30.5004 127.755 31.95 128.292 33.5044C129.643 37.41 129.886 42.2975 129.691 46.7949C129.495 51.3079 128.853 55.503 128.385 58.0616L128.378 58.1008L128.366 58.1389C128.213 58.6569 128.042 59.1353 127.856 59.5309C127.681 59.9018 127.451 60.2931 127.141 60.5412C126.994 60.6589 126.827 60.7231 126.718 60.7594C126.594 60.8007 126.461 60.8325 126.333 60.8579C126.077 60.9089 125.786 60.9448 125.524 60.9704C125.258 60.9964 125.005 61.0132 124.82 61.0235C124.727 61.0287 124.651 61.0323 124.597 61.0346L124.534 61.0371L124.516 61.0378L124.51 61.038L124.485 60.2884C124.509 61.038 124.51 61.038 124.51 61.038L124.497 61.0384H121.138C119.742 65.8216 115.323 69.3159 110.089 69.3159C104.855 69.3159 100.437 65.8216 99.0399 61.0384H38.9097C38.0468 66.5409 33.2851 70.75 27.5403 70.75C21.7955 70.75 17.0337 66.5409 16.1708 61.0384H4.63978L4.62849 61.0381L4.62664 61.038L4.6241 61.0379L4.61695 61.0377L4.59461 61.0367C4.57625 61.0358 4.55099 61.0345 4.51953 61.0324C4.45667 61.0283 4.3687 61.0214 4.26119 61.0097C4.04711 60.9865 3.75067 60.9441 3.41815 60.8668C2.7767 60.7177 1.89501 60.4151 1.25174 59.7718L1.19207 59.7123C0.890597 59.412 0.597475 59.12 0.441473 58.6906C0.303466 58.3108 0.282787 57.8418 0.256389 57.2432L0.251067 57.1233L0.25 57.0996L0.250438 57.0758C0.298359 54.4752 0.586893 50.639 1.68418 46.9299C2.77811 43.2321 4.70843 39.5528 8.11899 37.4174C11.8467 35.0834 16.0854 33.743 20.035 32.5489C20.2593 32.4811 20.4825 32.4138 20.7046 32.3468C24.4385 31.221 27.8365 30.1964 30.4455 28.5657C31.7781 27.7329 32.8319 26.6375 33.8882 25.332C34.3575 24.7518 34.8201 24.1396 35.3091 23.4923L35.3093 23.4921L35.3093 23.492L35.499 23.2411C36.0561 22.5045 36.6473 21.7295 37.303 20.9376C39.9473 17.7439 43.6092 14.3142 50.5573 11.5351C52.4478 10.7789 55.361 10.2173 58.7857 9.81595C62.2287 9.41242 66.2509 9.16428 70.3963 9.05893C71.9387 9.01974 73.5002 9.00027 75.0573 9.00001C75.4694 8.99991 75.8811 9.00115 76.292 9.00373V9.00152L77.0497 9.00934C77.2181 9.01107 77.3863 9.01303 77.5544 9.01522L77.7939 9.01769V9.01849C83.6314 9.10188 89.2178 9.45575 93.2756 10.0541C101.013 11.1949 117.718 14.1591 125.797 28.0206L126.455 29.1483H126.411ZM76.292 10.5039C76.0436 10.5023 75.7949 10.5011 75.546 10.5005C75.327 10.5 75.1079 10.4999 74.8886 10.5001C70.3553 10.5053 65.7904 10.6748 61.7825 11.0218C57.113 11.4262 53.2841 12.0656 51.1284 12.9278C42.6106 16.3348 39.3114 20.7018 36.5268 24.3875L36.4905 24.4356C35.6369 25.5655 34.8071 26.6638 33.8764 27.6489H76.292V10.5039ZM110.089 47.7979C104.561 47.7979 100.08 52.2791 100.08 57.8069C100.08 63.3347 104.561 67.8159 110.089 67.8159C115.617 67.8159 120.098 63.3347 120.098 57.8069C120.098 52.2791 115.617 47.7979 110.089 47.7979ZM27.5403 49.232C22.0124 49.232 17.5312 53.7131 17.5312 59.241C17.5312 64.7688 22.0124 69.25 27.5403 69.25C33.0681 69.25 37.5493 64.7688 37.5493 59.241C37.5493 53.7131 33.0681 49.232 27.5403 49.232Z" fill="white"/>
</svg>
