<svg width="130" height="80" viewBox="0 0 130 80" fill="none" xmlns="http://www.w3.org/2000/svg">
<path d="M30.2762 29.0167C24.4547 32.7072 14.9949 33.4453 7.62588 38.1252C1.15788 42.2329 0.0959948 52.4306 0 57.7147C0.0654225 59.1909 0.0654225 59.1909 0.793111 59.929C1.79784 60.9481 3.70379 61.0063 3.70379 61.0063H125.278C125.278 61.0063 127.152 60.9437 127.497 60.6638C127.842 60.3839 128.189 59.5969 128.486 58.5759C129.429 53.3505 131.068 41.4584 128.422 33.6966C122.06 15.0344 102.317 11.3969 93.4929 10.0772C81.942 8.34961 57.8363 8.60121 50.5594 11.5535C36.7334 17.163 36.0977 25.3262 30.2762 29.0167Z" fill="#B3C8F2"/>
<path fill-rule="evenodd" clip-rule="evenodd" d="M77.1463 9.01027V28.1905H31.4277C32.9425 26.9436 34.124 25.3574 35.4283 23.6062C38.2866 19.7687 41.7348 15.1393 50.5731 11.5535C55.1761 9.68602 66.513 8.89914 77.1463 9.01027Z" fill="#6C97EA"/>
<path fill-rule="evenodd" clip-rule="evenodd" d="M125.955 28.1899H77.1475V9.00964C83.3239 9.07422 89.2629 9.44178 93.507 10.0765C101.384 11.2546 117.961 14.2796 125.955 28.1899Z" fill="#1A4CAE"/>
<path opacity="0.5" fill-rule="evenodd" clip-rule="evenodd" d="M67.9561 32.8582C71.7061 31.6425 75.2472 30.4946 77.9841 28.6546C80.0842 27.2427 81.5094 25.2135 83.1225 22.9168C85.8487 19.0353 89.1114 14.3899 97.0754 10.6694C95.7545 10.4247 94.5476 10.2345 93.4958 10.0772C81.945 8.34961 57.8392 8.60121 50.5623 11.5535C41.7241 15.1393 38.2759 19.7687 35.4176 23.6062C33.8045 25.7719 32.3793 27.6853 30.2792 29.0167C27.5422 30.7518 24.0011 31.8342 20.2512 32.9805C16.0249 34.2725 11.5333 35.6455 7.62881 38.1252C1.16081 42.2329 0.0989245 52.4306 0.00292969 57.7147C0.0407404 58.5679 0.0566986 58.9279 0.203912 59.2224C0.311416 59.4374 0.488917 59.6175 0.79604 59.929C1.80077 60.9481 3.70672 61.0063 3.70672 61.0063H48.1159C48.0298 60.8995 47.9644 60.8025 47.914 60.6983C47.762 60.384 47.7461 60.0038 47.7079 59.0886C47.8038 53.4848 48.8657 42.6702 55.3337 38.314C59.2383 35.6843 63.7298 34.2283 67.9561 32.8582Z" fill="#213459"/>
<ellipse cx="26.926" cy="59.9285" rx="10.9153" ry="11.0715" fill="#6C97EA"/>
<path fill-rule="evenodd" clip-rule="evenodd" d="M30.4152 49.4339C26.0969 50.9096 22.9871 55.0506 22.9871 59.9283C22.9871 64.8061 26.0969 68.9471 30.4152 70.4228C29.3202 70.797 28.1474 70.9998 26.928 70.9998C20.8996 70.9998 16.0127 66.043 16.0127 59.9283C16.0127 53.8137 20.8996 48.8568 26.928 48.8568C28.1474 48.8568 29.3202 49.0596 30.4152 49.4339Z" fill="#42506B" fill-opacity="0.65"/>
<ellipse cx="110.674" cy="58.4529" rx="10.9153" ry="11.0715" fill="#6C97EA"/>
</svg>
