<svg width="130" height="80" viewBox="0 0 130 80" fill="none" xmlns="http://www.w3.org/2000/svg">
<path fill-rule="evenodd" clip-rule="evenodd" d="M10.8613 3C10.8613 1.61929 11.9806 0.5 13.3613 0.5H75.2777C76.6584 0.5 77.7777 1.61929 77.7777 3V10.0068V79.5H10.8613V10.0068V3ZM76.7777 3V9.00681H11.8613V3C11.8613 2.17157 12.5329 1.5 13.3613 1.5H75.2777C76.1061 1.5 76.7777 2.17157 76.7777 3ZM76.7777 10.0068H11.8613V78.5H76.7777V10.0068ZM47.7554 14.3188H36.1963V30.0898H47.7554V14.3188ZM37.1963 29.0898V15.3188H46.7554V29.0898H37.1963ZM36.1963 35.4007H47.7554V51.1717H36.1963V35.4007ZM37.1963 36.4007V50.1717H46.7554V36.4007H37.1963ZM47.7554 56.8723H36.1963V72.6433H47.7554V56.8723ZM37.1963 71.6433V57.8723H46.7554V71.6433H37.1963ZM52.4111 14.3188H63.9702V30.0898H52.4111V14.3188ZM53.4111 15.3188V29.0898H62.9702V15.3188H53.4111ZM63.9702 35.4007H52.4111V51.1717H63.9702V35.4007ZM53.4111 50.1717V36.4007H62.9702V50.1717H53.4111ZM52.4111 56.8723H63.9702V72.6433H52.4111V56.8723ZM53.4111 57.8723V71.6433H62.9702V57.8723H53.4111ZM109.579 38.375L109.575 39.3197L110.454 39.43C113.935 39.8672 116.639 42.8617 116.639 46.4999C116.639 48.9622 115.401 51.131 113.517 52.4116L112.682 52.9794L113.258 53.809C114.117 55.0464 114.622 56.552 114.622 58.1798C114.622 62.4018 111.224 65.8126 107.048 65.8126C106.471 65.8126 105.91 65.7477 105.371 65.625L104.149 65.3468V78H101.878V68.1313L100.578 68.5388C99.915 68.7469 99.2088 68.8593 98.4747 68.8593C94.5772 68.8593 91.4058 65.6759 91.4058 61.7343C91.4058 60.87 91.558 60.0439 91.836 59.2802L92.001 58.8268L91.7488 58.4154C90.8927 57.0195 90.3982 55.3744 90.3982 53.6095C90.3982 52.3267 90.6594 51.1081 91.13 50.0027L91.3662 49.4481L90.986 48.9803C89.9877 47.7519 89.3887 46.1825 89.3887 44.4688C89.3887 41.0802 91.7347 38.2484 94.8706 37.5238L95.4811 37.3827L95.6204 36.7718C96.3426 33.604 99.1582 31.25 102.51 31.25C106.407 31.25 109.578 34.4325 109.579 38.3733V38.375ZM110.579 38.4378L110.579 38.375C110.579 33.8877 106.966 30.25 102.51 30.25C98.6769 30.25 95.4681 32.9412 94.6454 36.5495C91.0617 37.3776 88.3887 40.6089 88.3887 44.4688C88.3887 46.4198 89.0716 48.2103 90.2099 49.6109C89.6875 50.8381 89.3982 52.1898 89.3982 53.6095C89.3982 55.5638 89.9464 57.3891 90.8963 58.9382C90.579 59.81 90.4058 60.7518 90.4058 61.7343C90.4058 66.2216 94.0184 69.8593 98.4747 69.8593C98.9532 69.8593 99.422 69.8174 99.8775 69.737C100.219 69.6767 100.553 69.5949 100.878 69.493V79H105.149V66.6001C105.476 66.6745 105.81 66.7301 106.149 66.7657C106.445 66.7967 106.745 66.8126 107.048 66.8126C111.783 66.8126 115.622 62.9476 115.622 58.1798C115.622 56.4035 115.089 54.7525 114.175 53.38C114.144 53.3325 114.112 53.2854 114.079 53.2386C114.123 53.2086 114.167 53.1783 114.21 53.1475C116.284 51.677 117.639 49.2478 117.639 46.4999C117.639 42.3566 114.559 38.9377 110.579 38.4378Z" fill="white"/>
</svg>
