<svg width="130" height="80" viewBox="0 0 130 80" fill="none" xmlns="http://www.w3.org/2000/svg">
<path fill-rule="evenodd" clip-rule="evenodd" d="M115.954 38.2879L115.954 38.3506C119.925 38.8491 122.998 42.2602 122.998 46.3939C122.998 49.1928 121.589 51.6604 119.447 53.1169C120.417 54.5135 120.986 56.2131 120.986 58.0465C120.986 62.8031 117.156 66.6592 112.432 66.6592C111.782 66.6592 111.148 66.586 110.539 66.4474V78.8181H106.277V69.3329C105.519 69.5707 104.714 69.6988 103.878 69.6988C99.4325 69.6988 95.8284 66.0696 95.8284 61.5927C95.8284 60.6124 96.0012 59.6727 96.3178 58.8029C95.3702 57.2575 94.8233 55.4365 94.8233 53.4868C94.8233 52.0704 95.112 50.7218 95.6333 49.4975C94.4977 48.1001 93.8164 46.3139 93.8164 44.3675C93.8164 40.5167 96.4829 37.2931 100.058 36.4668C100.879 32.8669 104.08 30.1819 107.904 30.1819C112.35 30.1819 115.954 33.8111 115.954 38.2879Z" fill="#D9D9D9"/>
<path fill-rule="evenodd" clip-rule="evenodd" d="M113.697 32.6591C112.805 32.3155 111.836 32.1273 110.823 32.1273C106.999 32.1273 103.798 34.8122 102.977 38.4121C99.4018 39.2385 96.7352 42.4621 96.7352 46.3128C96.7352 48.2593 97.4165 50.0455 98.5521 51.4428C98.0308 52.6671 97.7422 54.0157 97.7422 55.4322C97.7422 57.3818 98.289 59.2029 99.2367 60.7483C98.92 61.6181 98.7472 62.5578 98.7472 63.5381C98.7472 65.7246 99.6069 67.7089 101.005 69.1669C97.9778 68.0018 95.8284 65.05 95.8284 61.5927C95.8284 60.6124 96.0012 59.6727 96.3178 58.8029C95.3702 57.2575 94.8233 55.4365 94.8233 53.4868C94.8233 52.0704 95.112 50.7218 95.6333 49.4975C94.4977 48.1001 93.8164 46.3139 93.8164 44.3675C93.8164 40.5167 96.4829 37.2931 100.058 36.4668C100.879 32.8669 104.08 30.1819 107.904 30.1819C110.179 30.1819 112.233 31.1318 113.697 32.6591Z" fill="#919191"/>
<path d="M27.5508 14.7867H38.0852V29.5233H27.5508V14.7867Z" fill="#A8A8A8"/>
<path d="M27.5508 35.8192H38.0852V50.5558H27.5508V35.8192Z" fill="#A8A8A8"/>
<path d="M27.5508 57.2408H38.0852V71.9774H27.5508V57.2408Z" fill="#A8A8A8"/>
<path d="M16 3C16 1.89543 16.8954 1 18 1H79.7626C80.8672 1 81.7626 1.89543 81.7626 3V78.818H16V3Z" fill="#D9D9D9"/>
<path d="M16 3C16 1.89543 16.8954 1 18 1H79.7626C80.8672 1 81.7626 1.89543 81.7626 3V9.48697H16V3Z" fill="#848484"/>
<path d="M41.2754 14.7867H51.8098V29.5233H41.2754V14.7867Z" fill="#A8A8A8"/>
<path d="M41.2754 35.8192H51.8098V50.5558H41.2754V35.8192Z" fill="#A8A8A8"/>
<path d="M41.2754 57.2408H51.8098V71.9774H41.2754V57.2408Z" fill="#A8A8A8"/>
<path d="M57.4521 14.7867H67.9866V29.5233H57.4521V14.7867Z" fill="#A8A8A8"/>
<path d="M57.4521 35.8192H67.9866V50.5558H57.4521V35.8192Z" fill="#A8A8A8"/>
<path d="M57.4521 57.2408H67.9866V71.9774H57.4521V57.2408Z" fill="#A8A8A8"/>
<path d="M16 3C16 1.89543 16.8954 1 18 1H31.3887V78.818H16V3Z" fill="#484848" fill-opacity="0.5"/>
</svg>
