<svg width="130" height="80" viewBox="0 0 130 80" fill="none" xmlns="http://www.w3.org/2000/svg">
<g clip-path="url(#clip0_162_3425)">
<path fill-rule="evenodd" clip-rule="evenodd" d="M11.7141 0C9.66285 0 8 1.65767 8 3.70251V28.8055H2.96583C1.32785 28.8055 0 30.1334 0 31.7714V42.5459H-0.000976562V57.0277V58.5108V70.6017C-0.000976562 72.6492 1.65883 74.309 3.70631 74.309H4.2151V75.9395C4.2151 77.5381 5.51104 78.834 7.10966 78.834C8.70827 78.834 10.0042 77.5381 10.0042 75.9395V74.309H119.996V75.9395C119.996 77.5381 121.292 78.834 122.891 78.834C124.49 78.834 125.786 77.5381 125.786 75.9395V74.309H126.293C128.34 74.309 130 72.6492 130 70.6017V58.5108V57.0277V42.5459H129.683V31.9658C129.683 30.3278 128.355 29 126.717 29H122V3.70251C122 1.65767 120.337 0 118.286 0H11.7141ZM120.514 29V3.70251C120.514 2.4756 119.517 1.481 118.286 1.481H11.7141C10.4833 1.481 9.48563 2.4756 9.48563 3.70251V28.8055H16.7171C18.3551 28.8055 19.683 30.1334 19.683 31.7714V42.5459H110V31.9658C110 30.3278 111.328 29 112.966 29H120.514ZM128.517 44.0289V57.0277H1.48194V44.0289H128.517ZM128.517 58.5108H1.48194V70.6017C1.48194 71.8302 2.47783 72.8261 3.70631 72.8261H126.293C127.521 72.8261 128.517 71.8302 128.517 70.6017V58.5108ZM16.7171 30.2885H2.96583C2.14684 30.2885 1.48292 30.9524 1.48292 31.7714V41.8045H18.2001V31.7714C18.2001 30.9524 17.5361 30.2885 16.7171 30.2885ZM5.69802 75.0508H8.52129V75.9395C8.52129 76.7191 7.88928 77.3511 7.10966 77.3511C6.33003 77.3511 5.69802 76.7191 5.69802 75.9395V75.0508ZM124.303 75.0508H121.479V75.9395C121.479 76.7191 122.111 77.3511 122.891 77.3511C123.671 77.3511 124.303 76.7191 124.303 75.9395V75.0508ZM112.966 30.4829H126.717C127.536 30.4829 128.2 31.1468 128.2 31.9658V41.999H111.483V31.9658C111.483 31.1468 112.147 30.4829 112.966 30.4829Z" fill="white"/>
</g>
<defs>
<clipPath id="clip0_162_3425">
<rect width="130" height="80" fill="white"/>
</clipPath>
</defs>
</svg>
