<svg width="130" height="80" viewBox="0 0 130 80" fill="none" xmlns="http://www.w3.org/2000/svg">
<path d="M0 58.576H130V71.6439C130 73.3007 128.657 74.6438 127 74.6438H3C1.34315 74.6438 0 73.3007 0 71.6438V58.576Z" fill="#E68B90"/>
<rect y="43.8474" width="130" height="14.7288" fill="#AB383F"/>
<path d="M8.4502 3.99988C8.4502 2.34303 9.79334 0.999878 11.4502 0.999878H119.054C120.711 0.999878 122.054 2.34302 122.054 3.99988V43.8473H8.4502V3.99988Z" fill="#E68B90"/>
<path opacity="0.5" d="M8.19922 3.99988C8.19922 2.34303 9.54236 0.999878 11.1992 0.999878H43.4989V43.8473H8.19922V3.99988Z" fill="#651419"/>
<path opacity="0.5" d="M0 71.6438C0 73.3007 1.34315 74.6438 3 74.6438H35.2997V43.8474H0V71.6438Z" fill="#651419"/>
<path d="M0 32.1187C0 30.4618 1.34315 29.1187 3 29.1187H16.9099C18.5668 29.1187 19.9099 30.4618 19.9099 32.1187V43.8475H0V32.1187Z" fill="#651419"/>
<path d="M3.5127 74.6442H9.36855V77.0722C9.36855 78.6892 8.05767 80.0001 6.44062 80.0001C4.82357 80.0001 3.5127 78.6892 3.5127 77.0722V74.6442Z" fill="#651419"/>
<path d="M120.63 74.6442H126.486V77.0722C126.486 78.6892 125.175 80.0001 123.558 80.0001C121.941 80.0001 120.63 78.6892 120.63 77.0722V74.6442Z" fill="#651419"/>
<path d="M110.09 32.1187C110.09 30.4618 111.433 29.1187 113.09 29.1187H127C128.657 29.1187 130 30.4618 130 32.1187V43.8475H110.09V32.1187Z" fill="#651419"/>
</svg>
