<svg width="130" height="80" viewBox="0 0 130 80" fill="none" xmlns="http://www.w3.org/2000/svg">
<rect x="12" y="22.2727" width="106" height="56.7267" rx="3" fill="#BCEEEB"/>
<path fill-rule="evenodd" clip-rule="evenodd" d="M63.8958 9.509C56.9716 9.509 51.3583 15.2234 51.3583 22.2725V36.4542C51.3583 38.8039 49.4873 40.7087 47.1792 40.7087C44.8711 40.7087 43 38.8039 43 36.4542V22.2725C43 10.524 52.3554 1 63.8958 1C75.4363 1 84.7917 10.524 84.7917 22.2725V36.4542C84.7917 38.8039 82.9206 40.7087 80.6125 40.7087C78.3044 40.7087 76.4333 38.8039 76.4333 36.4542V22.2725C76.4333 15.2234 70.8201 9.509 63.8958 9.509Z" fill="#7DCFCB"/>
<path fill-rule="evenodd" clip-rule="evenodd" d="M67.1101 45.0028C67.1101 42.6531 65.239 40.7483 62.9309 40.7483C60.6228 40.7483 58.7517 42.6531 58.7517 45.0028V50.6749H53.1792C50.8711 50.6749 49 52.5797 49 54.9294C49 57.2791 50.8711 59.1839 53.1792 59.1839H58.7517V64.8571C58.7517 67.2068 60.6228 69.1116 62.9309 69.1116C65.239 69.1116 67.1101 67.2068 67.1101 64.8571V59.1839H72.682C74.99 59.1839 76.8611 57.2791 76.8611 54.9294C76.8611 52.5797 74.99 50.6749 72.682 50.6749H67.1101V45.0028Z" fill="#00BDB2"/>
<path opacity="0.5" d="M12 25.4499C12 23.7931 13.3431 22.45 15 22.45H34.5741V79H15C13.3431 79 12 77.6568 12 76V25.4499Z" fill="#627B7A"/>
</svg>
