<svg width="130" height="80" viewBox="0 0 130 80" fill="none" xmlns="http://www.w3.org/2000/svg">
<path fill-rule="evenodd" clip-rule="evenodd" d="M15.3496 22.95H42.3545V36.4542C42.3545 39.0684 44.4256 41.2087 47.0061 41.2087C49.5865 41.2087 51.6576 39.0684 51.6576 36.4542V22.95H75.5671V36.4542C75.5671 39.0684 77.6382 41.2087 80.2186 41.2087C82.7991 41.2087 84.8702 39.0684 84.8702 36.4542V22.95H114.65C116.03 22.95 117.15 24.0693 117.15 25.45V76C117.15 77.3807 116.03 78.5 114.65 78.5H15.3496C13.9689 78.5 12.8496 77.3807 12.8496 76V25.45C12.8496 24.0693 13.9689 22.95 15.3496 22.95ZM63.6123 10.009C70.0985 10.009 75.3962 15.3152 75.563 21.95H51.6617C51.8284 15.3152 57.1262 10.009 63.6123 10.009ZM114.65 21.95H84.8679C84.6996 10.0853 75.2589 0.5 63.6123 0.5C51.9658 0.5 42.5251 10.0853 42.3568 21.95H15.3496C13.4166 21.95 11.8496 23.517 11.8496 25.45V76C11.8496 77.933 13.4166 79.5 15.3496 79.5H114.65C116.583 79.5 118.15 77.933 118.15 76V25.45C118.15 23.517 116.583 21.95 114.65 21.95ZM63.6123 1.5C52.4357 1.5 43.3545 10.7886 43.3545 22.2725V36.4542C43.3545 38.5393 45.0008 40.2087 47.0061 40.2087C49.0113 40.2087 50.6576 38.5393 50.6576 36.4542V22.2725C50.6576 14.9589 56.4462 9.009 63.6123 9.009C70.7785 9.009 76.567 14.9589 76.567 22.2725V36.4542C76.567 38.5393 78.2134 40.2087 80.2186 40.2087C82.2239 40.2087 83.8702 38.5393 83.8702 36.4542V22.2725C83.8702 10.7886 74.789 1.5 63.6123 1.5ZM59.4185 45.0031C59.4185 42.9179 61.0649 41.2486 63.0701 41.2486C65.0753 41.2486 66.7217 42.9179 66.7217 45.0031V51.1754H72.758C74.7632 51.1754 76.4096 52.8447 76.4096 54.9299C76.4096 57.015 74.7632 58.6844 72.758 58.6844H66.7217V64.8574C66.7217 66.9426 65.0753 68.6119 63.0701 68.6119C61.0649 68.6119 59.4185 66.9426 59.4185 64.8574V58.6844H53.384C51.3788 58.6844 49.7324 57.015 49.7324 54.9299C49.7324 52.8447 51.3788 51.1754 53.384 51.1754H59.4185V45.0031ZM63.0701 40.2486C60.4896 40.2486 58.4185 42.3889 58.4185 45.0031V50.1754H53.384C50.8035 50.1754 48.7324 52.3156 48.7324 54.9299C48.7324 57.5441 50.8035 59.6844 53.384 59.6844H58.4185V64.8574C58.4185 67.4716 60.4896 69.6119 63.0701 69.6119C65.6506 69.6119 67.7217 67.4716 67.7217 64.8574V59.6844H72.758C75.3384 59.6844 77.4096 57.5441 77.4096 54.9299C77.4096 52.3156 75.3384 50.1754 72.758 50.1754H67.7217V45.0031C67.7217 42.3889 65.6506 40.2486 63.0701 40.2486Z" fill="white"/>
</svg>
