<svg width="130" height="80" viewBox="0 0 130 80" fill="none" xmlns="http://www.w3.org/2000/svg">
<rect y="69.8992" width="129" height="9.10083" rx="4.55042" fill="#9E7DC1"/>
<path d="M18.0459 49.751C18.0459 28.7642 35.0591 11.751 56.0459 11.751H72.9539C93.9407 11.751 110.954 28.7642 110.954 49.751V69.8992H18.0459V49.751Z" fill="#9E7DC1"/>
<path fill-rule="evenodd" clip-rule="evenodd" d="M56.0469 11.751C35.0601 11.751 18.0469 28.7642 18.0469 49.751V69.8992H37.7441V49.751C37.7441 29.2311 54.0088 12.5099 74.3495 11.7761C73.8867 11.7594 73.4217 11.751 72.9548 11.751H56.0469Z" fill="#D9C8EC"/>
<path d="M59.3076 5.19141C59.3076 2.32427 61.6319 0 64.499 0C67.3662 0 69.6904 2.32427 69.6904 5.19141V12.7509H59.3076V5.19141Z" fill="#593086"/>
</svg>
