<svg width="130" height="80" viewBox="0 0 130 80" fill="none" xmlns="http://www.w3.org/2000/svg">
<g clip-path="url(#clip0_162_3419)">
<path fill-rule="evenodd" clip-rule="evenodd" d="M69.2309 12.7509V6.23165C69.2309 3.89457 67.3363 2 64.9992 2C62.6622 2 60.7676 3.89457 60.7676 6.23165V12.7509H69.2309ZM64.9992 1C62.1099 1 59.7676 3.34229 59.7676 6.23165V12.751H56.1865H55.8121C48.6625 12.751 41.9666 14.8143 36.2234 18.411C31.7876 21.155 27.9586 24.786 24.9839 29.0566C20.0895 35.9318 17.1865 44.4955 17.1865 53.7794V70.8992H18.1865H39.0519H111.815V50.751C111.815 29.7642 94.8015 12.751 73.8147 12.751H72.1891H70.2309V6.23165C70.2309 3.34229 67.8886 1 64.9992 1ZM56.1865 13.751C49.1787 13.751 42.626 15.6992 37.0403 19.0836C32.6951 21.7497 28.8948 25.3134 25.8664 29.5396C21.6569 35.5456 19.1865 42.8598 19.1865 50.751V69.8992H38.0519V53.7794C38.0519 35.0867 49.5748 19.1874 65.5609 13.751H56.1865ZM69.1635 13.751C51.9274 17.8696 39.0519 34.2273 39.0519 53.7794V69.8992H110.815V50.751C110.815 30.3165 94.2493 13.751 73.8147 13.751H69.1635ZM1 75.4497C1 73.4888 2.58958 71.8993 4.55042 71.8993H125.45C127.41 71.8993 129 73.4888 129 75.4497C129 77.4105 127.41 79.0001 125.45 79.0001H4.55041C2.58957 79.0001 1 77.4105 1 75.4497ZM0 75.4497C0 72.9365 2.03729 70.8993 4.55042 70.8993H125.45C127.963 70.8993 130 72.9365 130 75.4497C130 77.9628 127.963 80.0001 125.45 80.0001H4.55041C2.03729 80.0001 0 77.9628 0 75.4497Z" fill="white"/>
</g>
<defs>
<clipPath id="clip0_162_3419">
<rect width="130" height="80" fill="white"/>
</clipPath>
</defs>
</svg>
