<svg width="130" height="80" viewBox="0 0 130 80" fill="none" xmlns="http://www.w3.org/2000/svg">
<path d="M16 53.0477C16 51.3909 17.3431 50.0477 19 50.0477H98.7308V78.9998H16V53.0477Z" fill="#FFECD7"/>
<path d="M51.2578 39.9512C51.2578 38.8466 52.1532 37.9512 53.2578 37.9512H114V78.9997H51.2578V39.9512Z" fill="#FFECD7"/>
<rect x="16" y="71.5803" width="97.9999" height="4.61067" fill="#97816F"/>
<path opacity="0.5" d="M16 66.1281C16 64.8999 16.7487 63.7957 17.8897 63.3411L51.2579 50.0477V78.9998H16L16 66.1281Z" fill="#5B4B43"/>
<rect x="96.6016" y="41.2966" width="10.3987" height="5.92527" fill="#97816F"/>
<rect x="96.6016" y="17.5957" width="10.3987" height="5.92527" fill="#97816F"/>
<rect x="96.6016" y="29.4462" width="10.3987" height="5.92527" fill="#97816F"/>
<rect x="96.6016" y="35.3718" width="10.3987" height="5.92527" fill="#FFECD7"/>
<path d="M96.6016 13.6705C96.6016 12.566 97.497 11.6705 98.6016 11.6705H105C106.105 11.6705 107 12.566 107 13.6705V17.5958H96.6016V13.6705Z" fill="#FFECD7"/>
<rect x="96.6016" y="23.5209" width="10.3987" height="5.92527" fill="#FFECD7"/>
<rect x="59.2354" y="39.5184" width="12.7645" height="7.7037" fill="#97816F"/>
<rect x="59.2354" y="8.70361" width="12.7645" height="7.7037" fill="#97816F"/>
<rect x="59.2354" y="24.111" width="12.7645" height="7.7037" fill="#97816F"/>
<rect x="59.2354" y="31.8148" width="12.7645" height="7.7037" fill="#FFECD7"/>
<path d="M59.2354 2C59.2354 1.44771 59.6831 1 60.2354 1H70.9999C71.5522 1 71.9999 1.44772 71.9999 2V8.7037H59.2354V2Z" fill="#FFECD7"/>
<rect x="59.2354" y="16.4073" width="12.7645" height="7.7037" fill="#FFECD7"/>
</svg>
