<svg width="130" height="80" viewBox="0 0 130 80" fill="none" xmlns="http://www.w3.org/2000/svg">
<path fill-rule="evenodd" clip-rule="evenodd" d="M60.0684 0.25C59.1019 0.25 58.3184 1.0335 58.3184 2V37.2012H53.3281C51.8093 37.2012 50.5781 38.4324 50.5781 39.9512V49.2978H19.25C17.1789 49.2978 15.5 50.9767 15.5 53.0478V79.7498H52.0782V79.7497H114.5V37.2012H107.398V13.6701C107.398 12.1513 106.167 10.9201 104.648 10.9201H98.5781C97.0593 10.9201 95.8281 12.1513 95.8281 13.6701V37.2012H72.9107V2C72.9107 1.0335 72.1272 0.25 71.1607 0.25H60.0684ZM72.9107 38.7012V47.9718H58.3184V38.7012H53.3281C52.6378 38.7012 52.0781 39.2609 52.0781 39.9512L52.0782 49.2978L52.0781 78.2497H113V38.7012H107.398V47.9717H95.8281V38.7012H72.9107ZM59.8184 2C59.8184 1.86193 59.9303 1.75 60.0684 1.75H71.1607C71.2988 1.75 71.4107 1.86193 71.4107 2V46.4718H59.8184V2ZM98.5781 12.4201C97.8878 12.4201 97.3281 12.9797 97.3281 13.6701V46.4717H105.898V13.6701C105.898 12.9797 105.338 12.4201 104.648 12.4201H98.5781ZM50.5781 50.7978V71.3509V76.0795L50.5782 78.2498H17V53.0478C17 51.8051 18.0074 50.7978 19.25 50.7978H50.5781Z" fill="#D9D9D9"/>
</svg>
