<svg width="130" height="80" viewBox="0 0 130 80" fill="none" xmlns="http://www.w3.org/2000/svg">
<path fill-rule="evenodd" clip-rule="evenodd" d="M64.7974 4C59.7996 4 55.748 8.05152 55.748 13.0493V13.9305H62.0357H67.56H73.8467V13.0493C73.8467 8.05152 69.7952 4 64.7974 4ZM51.748 27.5516V14.9305H46.2478C44.0466 14.9305 42.1684 16.5229 41.8084 18.6945L33.5491 68.5168C33.6026 68.4972 33.6604 68.4865 33.7207 68.4865H95.8732C95.9342 68.4865 95.9926 68.4975 96.0467 68.5175L87.7873 18.6945C87.4273 16.5229 85.5491 14.9305 83.3479 14.9305H77.8467V27.5516C77.8467 28.6561 76.9513 29.5516 75.8467 29.5516C74.7421 29.5516 73.8467 28.6561 73.8467 27.5516V14.9305H67.56H62.0357H55.748V27.5516C55.748 28.6561 54.8526 29.5516 53.748 29.5516C52.6435 29.5516 51.748 28.6561 51.748 27.5516ZM96.1888 69.3744C96.1027 69.4445 95.9928 69.4865 95.8732 69.4865H33.7207C33.6018 69.4865 33.4926 69.445 33.4067 69.3757L32.7621 73.2641C32.3076 76.0058 34.4224 78.5 37.2015 78.5H62.0357H67.56H92.3942C95.1733 78.5 97.2881 76.0058 96.8336 73.2641L96.1888 69.3744ZM51.748 13.0493V13.9305H46.2478C43.5574 13.9305 41.2619 15.8768 40.8219 18.531L31.7756 73.1005C31.2201 76.4515 33.8048 79.5 37.2015 79.5H62.0357H67.56H92.3942C95.7909 79.5 98.3756 76.4515 97.8201 73.1005L88.7738 18.531C88.3338 15.8768 86.0383 13.9305 83.3479 13.9305H77.8467V13.0493C77.8467 5.84238 72.0043 0 64.7974 0C57.5904 0 51.748 5.84238 51.748 13.0493Z" fill="white"/>
</svg>
