<svg width="130" height="80" viewBox="0 0 130 80" fill="none" xmlns="http://www.w3.org/2000/svg">
<path d="M46.0387 14.4738H62.5919C65.3534 14.4738 67.5919 16.7123 67.5919 19.4737V74.2679C67.5919 77.0293 65.3534 79.2679 62.5919 79.2679H36.9027C33.8129 79.2679 31.4626 76.4933 31.9708 73.4456L41.1068 18.6514C41.5087 16.2406 43.5946 14.4738 46.0387 14.4738Z" fill="#AADBEF"/>
<path opacity="0.5" fill-rule="evenodd" clip-rule="evenodd" d="M58.7694 14.556H46.1411C43.6971 14.556 41.6112 16.3229 41.2092 18.7337L32.0732 73.5278C31.5651 76.5756 33.9153 79.3502 37.0051 79.3502H49.6334C46.5435 79.3502 44.1933 76.5756 44.7014 73.5278L53.8374 18.7337C54.2394 16.3229 56.3253 14.556 58.7694 14.556Z" fill="#26586E"/>
<path d="M83.7782 14.556H61.2571C58.4957 14.556 56.2571 16.7946 56.2571 19.556V74.2679C56.2571 77.0293 58.4957 79.2679 61.2571 79.2679H93.0784C96.1746 79.2679 98.5265 76.4824 98.0076 73.43L88.7075 18.7181C88.2989 16.3145 86.2163 14.556 83.7782 14.556Z" fill="#AADBEF"/>
<path d="M53.6523 27.6405V13.1518C53.6523 6.99285 58.6452 2 64.8042 2V2C70.9632 2 75.956 6.99284 75.956 13.1518V27.6405" stroke="#008CC8" stroke-width="4" stroke-linecap="round"/>
<path d="M33.4395 69.2196H96.1685" stroke="#008CC8" stroke-linecap="round"/>
</svg>
