<svg width="30" height="31" viewBox="0 0 30 31" fill="none" xmlns="http://www.w3.org/2000/svg">
<path d="M29 15.2125C29 22.9445 22.732 29.2125 15 29.2125C7.26801 29.2125 1 22.9445 1 15.2125C1 7.48054 7.26801 1.21252 15 1.21252C22.732 1.21252 29 7.48054 29 15.2125Z" stroke="#111111" stroke-width="2"/>
<path d="M12.5135 17.5719L12.1716 21.2024C12.1716 21.2024 12.0292 22.3147 13.1402 21.2024C14.2512 20.0901 15.3165 19.2321 15.3165 19.2321" fill="#111111"/>
<path d="M10.186 16.4849L6.52625 15.2926C6.52625 15.2926 6.08897 15.1146 6.23007 14.7129C6.25931 14.6303 6.31778 14.5591 6.49193 14.4371C7.30295 13.8714 21.5046 8.76756 21.5046 8.76756C21.5046 8.76756 21.9063 8.63281 22.1428 8.7218C22.2508 8.76247 22.3207 8.80951 22.378 8.97858C22.3996 9.03959 22.411 9.1718 22.4097 9.30146C22.4097 9.39553 22.397 9.48197 22.3881 9.61925C22.3017 11.015 19.7135 21.4311 19.7135 21.4311C19.7135 21.4311 19.5585 22.04 19.0042 22.0616C18.8021 22.0693 18.5568 22.0286 18.2631 21.7756C17.1737 20.8387 13.411 18.3091 12.5796 17.7536C12.5326 17.7218 12.5199 17.6811 12.511 17.6417C12.4996 17.5832 12.5631 17.5108 12.5631 17.5108C12.5631 17.5108 19.1161 11.6862 19.2902 11.0748C19.3042 11.0277 19.2534 11.0036 19.1847 11.0239C18.75 11.1841 11.2042 15.9485 10.3716 16.4748C10.3233 16.5053 10.186 16.4862 10.186 16.4862V16.4849Z" fill="#111111"/>
</svg>
