<svg width="30" height="31" viewBox="0 0 30 31" fill="none" xmlns="http://www.w3.org/2000/svg">
<path d="M0.125423 15.0774C0.124456 17.6975 0.812109 20.2551 2.11914 22.5095L0 30.2125L7.91853 28.1455C10.1002 29.33 12.5566 29.9542 15.0564 29.9552H15.0628C23.2951 29.9552 29.9965 23.2856 30 15.0895C30.0014 11.1171 28.449 7.38209 25.629 4.57221C22.8087 1.76243 19.0584 0.214342 15.0628 0.212524C6.8292 0.212524 0.1287 6.88103 0.125369 15.0774H0.125423ZM4.84096 22.1213L4.54537 21.654C3.30253 19.6866 2.6464 17.413 2.64748 15.0784C2.65011 8.26581 8.21928 2.72343 15.0675 2.72343C18.3839 2.72477 21.5007 4.01163 23.845 6.34703C26.189 8.68227 27.4789 11.7868 27.4779 15.0885C27.475 21.9013 21.9057 27.4445 15.0629 27.4445H15.058C12.8299 27.4433 10.6448 26.8478 8.73896 25.7219L8.2854 25.4543L3.58641 26.6807L4.84096 22.1213Z" fill="#111111"/>
<path fill-rule="evenodd" clip-rule="evenodd" d="M11.3613 8.87423C11.0814 8.25689 10.7867 8.24446 10.5204 8.23363C10.3026 8.2244 10.0533 8.22498 9.80433 8.22498C9.55523 8.22498 9.15033 8.31782 8.80799 8.68882C8.46542 9.05981 7.5 9.95663 7.5 11.7807C7.5 13.605 8.83912 15.3675 9.02579 15.615C9.21261 15.8623 11.6109 19.725 15.4089 21.2111C18.5654 22.4461 19.2078 22.2005 19.8929 22.1387C20.578 22.0769 22.1037 21.242 22.4151 20.3763C22.7265 19.5107 22.7265 18.7688 22.6331 18.6137C22.5396 18.4591 22.2905 18.3665 21.9168 18.181C21.5431 17.9956 19.706 17.0986 19.3634 16.975C19.0209 16.8514 18.7717 16.7897 18.5226 17.1608C18.2735 17.5316 17.5579 18.3665 17.3397 18.6137C17.1218 18.8615 16.9038 18.8924 16.5301 18.7069C16.1564 18.521 14.9529 18.1299 13.5252 16.8669C12.4143 15.8843 11.6644 14.6707 11.4463 14.2996C11.2284 13.9288 11.423 13.7279 11.6105 13.5431C11.7782 13.377 11.9842 13.1104 12.171 12.8938C12.3575 12.6774 12.4198 12.5228 12.5444 12.2756C12.6689 12.0281 12.6066 11.8115 12.5132 11.6262C12.4198 11.4408 11.6936 9.60725 11.3613 8.87423Z" fill="#111111"/>
</svg>
